<?xml version="1.0" standalone="no"?>
<!DOCTYPE svg PUBLIC "-//W3C//DTD SVG 20010904//EN"
 "http://www.w3.org/TR/2001/REC-SVG-20010904/DTD/svg10.dtd">
<svg version="1.0" xmlns="http://www.w3.org/2000/svg"
 width="700.000000pt" height="700.000000pt" viewBox="0 0 700.000000 700.000000"
 preserveAspectRatio="xMidYMid meet">
<metadata>
Created by potrace 1.14, written by Peter Selinger 2001-2017
</metadata>
<g transform="translate(0.000000,700.000000) scale(0.100000,-0.100000)"
fill="#000000" stroke="none">
<path d="M596 5540 c-10 -4 -12 -391 -12 -2042 l0 -2038 30 -1 c200 -3 5788 0
5792 4 3 3 -34 74 -82 158 -48 85 -98 174 -112 199 -14 25 -51 90 -82 145 -74
129 -437 769 -462 815 -11 19 -27 49 -37 65 -17 29 -38 66 -98 173 -14 26 -82
145 -150 264 l-123 218 72 127 c40 71 78 137 85 148 7 11 16 29 21 40 5 11 24
45 42 75 18 30 73 127 123 215 49 88 98 175 109 193 126 223 163 288 173 304
5 9 22 39 36 65 15 26 36 64 47 83 11 19 30 52 41 73 12 20 85 151 164 290
234 410 239 419 233 424 -7 7 -5792 10 -5810 3z"/>
</g>
</svg>
